<svg width="176" height="26" viewBox="0 0 176 26" fill="none" xmlns="http://www.w3.org/2000/svg">
<path fill-rule="evenodd" clip-rule="evenodd" d="M129.295 20.3665C128.615 20.5604 127.915 20.6573 127.193 20.6573C126.139 20.6573 125.119 20.4738 124.134 20.1068C123.149 19.7397 122.331 19.2169 121.679 18.5382L124.009 16.1697C124.37 16.6129 124.845 16.9835 125.435 17.2812C126.024 17.579 126.611 17.7279 127.193 17.7279C127.457 17.7279 127.713 17.7002 127.963 17.6448C128.213 17.5894 128.431 17.4994 128.619 17.3747C128.806 17.2501 128.955 17.0839 129.066 16.8761C129.177 16.6684 129.232 16.419 129.232 16.1282C129.232 15.8512 129.163 15.6157 129.024 15.4218C128.886 15.2279 128.688 15.0513 128.431 14.892C128.175 14.7327 127.856 14.5873 127.474 14.4557C127.093 14.3241 126.659 14.1822 126.174 14.0298C125.702 13.8774 125.241 13.6974 124.79 13.4896C124.339 13.2819 123.937 13.0152 123.583 12.6898C123.229 12.3643 122.945 11.9695 122.73 11.5055C122.515 11.0415 122.407 10.4771 122.407 9.81228C122.407 8.99509 122.574 8.29563 122.907 7.71391C123.24 7.13218 123.677 6.65433 124.218 6.28036C124.759 5.9064 125.369 5.63285 126.049 5.45971C126.728 5.28658 127.415 5.20001 128.109 5.20001C128.941 5.20001 129.791 5.35237 130.658 5.65708C131.525 5.9618 132.284 6.41194 132.936 7.00752L130.668 9.39676C130.363 9.00894 129.964 8.70076 129.472 8.47223C128.979 8.24369 128.504 8.12943 128.046 8.12943C127.811 8.12943 127.571 8.1502 127.328 8.19175C127.086 8.2333 126.867 8.31295 126.673 8.43068C126.479 8.54841 126.316 8.70076 126.184 8.88775C126.052 9.07473 125.986 9.31366 125.986 9.60452C125.986 9.85383 126.038 10.0616 126.142 10.2278C126.246 10.394 126.399 10.5394 126.6 10.6641C126.801 10.7888 127.041 10.903 127.318 11.0069C127.595 11.1108 127.908 11.2181 128.254 11.3289C128.754 11.4951 129.274 11.6787 129.815 11.8795C130.356 12.0803 130.849 12.3469 131.292 12.6794C131.736 13.0118 132.104 13.4238 132.395 13.9155C132.687 14.4072 132.832 15.0201 132.832 15.7542C132.832 16.5991 132.676 17.3297 132.364 17.9461C132.052 18.5624 131.632 19.0714 131.105 19.4731C130.578 19.8748 129.975 20.1726 129.295 20.3665ZM52.3447 14.4453V20.2834H48.8489V5.574H54.4672C55.1747 5.574 55.8648 5.64671 56.5377 5.79215C57.2105 5.93758 57.8139 6.18343 58.348 6.52969C58.8821 6.87596 59.3087 7.33303 59.6277 7.90091C59.9468 8.46878 60.1063 9.17517 60.1063 10.0201C60.1063 11.0173 59.8358 11.8553 59.2948 12.534C58.7538 13.2126 58.0047 13.6974 57.0475 13.9883L60.8971 20.2834H56.7353L53.5516 14.4453H52.3447ZM52.3239 11.8691H54.0094C54.3007 11.8691 54.5989 11.8449 54.9041 11.7964C55.2093 11.7479 55.4868 11.6613 55.7365 11.5367C55.9862 11.412 56.1908 11.232 56.3503 10.9965C56.5099 10.761 56.5896 10.4563 56.5896 10.0824C56.5896 9.7361 56.5168 9.45562 56.3711 9.24094C56.2255 9.02625 56.0382 8.86005 55.8093 8.74232C55.5804 8.62458 55.3238 8.54494 55.0394 8.50339C54.755 8.46184 54.481 8.44106 54.2174 8.44106H52.3239V11.8691ZM68.825 20.2834V5.574H65.2459V20.2834H68.825ZM87.4486 5.574L81.7679 20.2834H78.2096L72.6329 5.574H76.6282L80.0408 16.0035H80.124L83.5158 5.574H87.4486ZM101.536 20.2834V17.2501H94.6904V14.196H100.808V11.3497H94.6904V8.58651H101.162V5.574H91.257V20.2834H101.536ZM109.984 14.4453V20.2834H106.488V5.574H112.107C112.814 5.574 113.504 5.64671 114.177 5.79215C114.85 5.93758 115.453 6.18343 115.987 6.52969C116.522 6.87596 116.948 7.33303 117.267 7.90091C117.586 8.46878 117.746 9.17517 117.746 10.0201C117.746 11.0173 117.475 11.8553 116.934 12.534C116.393 13.2126 115.644 13.6974 114.687 13.9883L118.536 20.2834H114.375L111.191 14.4453H109.984ZM111.649 11.8691H109.963V8.44106H111.857C112.121 8.44106 112.395 8.46184 112.679 8.50339C112.963 8.54494 113.22 8.62458 113.449 8.74232C113.678 8.86005 113.865 9.02625 114.011 9.24094C114.156 9.45562 114.229 9.7361 114.229 10.0824C114.229 10.4563 114.149 10.761 113.99 10.9965C113.83 11.232 113.626 11.412 113.376 11.5367C113.126 11.6613 112.849 11.7479 112.544 11.7964C112.238 11.8449 111.94 11.8691 111.649 11.8691ZM141.364 20.2834V5.574H137.785V20.2834H141.364ZM155.493 19.8575C154.508 20.1414 153.509 20.2834 152.496 20.2834H147.003V5.574H152.33C153.37 5.574 154.397 5.69519 155.409 5.93758C156.422 6.17996 157.324 6.58163 158.115 7.14258C158.905 7.70354 159.543 8.45493 160.029 9.39678C160.514 10.3386 160.757 11.5021 160.757 12.8871C160.757 14.1753 160.518 15.2868 160.039 16.2217C159.561 17.1566 158.93 17.9253 158.146 18.5278C157.362 19.1303 156.478 19.5735 155.493 19.8575ZM152.163 17.2085H150.478V8.60729H152.247C152.857 8.60729 153.45 8.67654 154.026 8.81505C154.601 8.95355 155.115 9.18555 155.565 9.51104C156.016 9.83653 156.377 10.2728 156.648 10.8199C156.918 11.367 157.053 12.0561 157.053 12.8871C157.053 13.7043 156.918 14.3899 156.648 14.944C156.377 15.498 156.016 15.9412 155.565 16.2736C155.115 16.606 154.594 16.845 154.005 16.9904C153.415 17.1358 152.801 17.2085 152.163 17.2085ZM175.989 17.2501V20.2834H165.71V5.574H175.615V8.58651H169.143V11.3497H175.261V14.196H169.143V17.2501H175.989Z" fill="white"/>
<path fill-rule="evenodd" clip-rule="evenodd" d="M6.07126 7.32927C4.89464 9.21883 3.88741 11.4692 3.15356 13.5386C2.85499 14.3805 1.92785 14.8219 1.08274 14.5244C0.237624 14.227 -0.205439 13.3033 0.09313 12.4614C0.882403 10.2358 1.98236 7.76171 3.31306 5.62473C4.61215 3.53848 6.268 1.54845 8.25539 0.592013C9.28973 0.0942358 10.4474 -0.138397 11.6674 0.0853023C12.8785 0.307385 13.9963 0.950698 15.0119 1.93704C16.9937 3.86181 18.7939 7.29312 20.4416 12.5152C22.0476 17.6047 23.6358 20.4057 25.0036 21.7575C25.6635 22.4097 26.2058 22.659 26.6152 22.7358C27.0129 22.8105 27.4408 22.7524 27.9409 22.5046C29.0277 21.9661 30.2331 20.6376 31.3976 18.6943C32.5296 16.8052 33.4941 14.5546 34.1936 12.4842C34.4796 11.638 35.4 11.1829 36.2495 11.4677C37.099 11.7526 37.5558 12.6695 37.2699 13.5158C36.5182 15.7404 35.4655 18.2142 34.1846 20.3517C32.9363 22.4349 31.3332 24.4351 29.3864 25.3998C28.3696 25.9036 27.2243 26.1407 26.014 25.9134C24.8153 25.6883 23.7145 25.0383 22.7176 24.053C20.7719 22.13 18.9918 18.7032 17.3452 13.4848C15.7404 8.39893 14.1363 5.60253 12.7461 4.25237C12.0757 3.60126 11.5156 3.34531 11.0798 3.26541C10.6529 3.18711 10.1947 3.24976 9.66726 3.5036C8.53105 4.05041 7.27947 5.38898 6.07126 7.32927Z" fill="white"/>
</svg>
